<?xml version="1.0" ?><svg viewBox="0 0 64 64" xmlns="http://www.w3.org/2000/svg"><g data-name="Layer 17" id="Layer_17"><path d="M50.74,35.06a.5.5,0,0,0-.7,0l-2.69,2.69a.5.5,0,0,0,0,.71l4.13,4.14H44A10.92,10.92,0,0,1,33.06,31.69,15.74,15.74,0,0,0,17.34,16H4a.5.5,0,0,0-.5.5v3.8a.5.5,0,0,0,.5.5H17.34A10.93,10.93,0,0,1,28.25,31.69,15.73,15.73,0,0,0,44,47.4h7.51l-4.13,4.14a.5.5,0,0,0,0,.71L50,54.94a.48.48,0,0,0,.7,0l9.59-9.58a.53.53,0,0,0,.15-.36.47.47,0,0,0-.15-.35Z"/><path d="M24.92,40.85a.49.49,0,0,0-.7-.07,10.81,10.81,0,0,1-6.88,2.45H4a.5.5,0,0,0-.5.5v3.8A.5.5,0,0,0,4,48H17.34a15.75,15.75,0,0,0,9.91-3.52.5.5,0,0,0,.07-.71Z"/><path d="M36.38,23.77a.5.5,0,0,0,.7.08A10.85,10.85,0,0,1,44,21.4h7.51l-4.13,4.14a.5.5,0,0,0,0,.71L50,28.94a.48.48,0,0,0,.7,0l9.59-9.59a.47.47,0,0,0,.15-.35.53.53,0,0,0-.15-.36L50.74,9.06a.48.48,0,0,0-.7,0l-2.69,2.69a.5.5,0,0,0,0,.71l4.13,4.14H44a15.71,15.71,0,0,0-9.91,3.52.51.51,0,0,0-.08.71Z"/></g></svg>