<?xml version="1.0" ?><svg enable-background="new 0 0 32 32" id="Glyph" version="1.1" viewBox="0 0 32 32" xml:space="preserve" xmlns="http://www.w3.org/2000/svg" xmlns:xlink="http://www.w3.org/1999/xlink"><path d="M3.7,8.256C3.774,8.164,3.915,8.157,3.998,8.24l16.589,16.589c0.082,0.082,0.079,0.215-0.006,0.293  l-3.902,3.612C16.487,28.911,16.244,29,16,29s-0.487-0.089-0.68-0.266l-10.77-9.968C2.906,17.243,2,15.213,2,13.048  C2,11.295,2.601,9.634,3.7,8.256z" id="XMLID_338_"/><path d="M29.707,28.293c0.391,0.391,0.391,1.023,0,1.414c-0.391,0.391-1.023,0.391-1.414,0l-26-26  c-0.391-0.391-0.391-1.023,0-1.414s1.023-0.391,1.414,0L7.13,5.716c2.884-1.188,6.327-0.851,8.87,1.049  c3.365-2.516,8.323-2.328,11.449,0.565C29.094,8.853,30,10.884,30,13.048s-0.906,4.195-2.551,5.717l-3.775,3.494L29.707,28.293z" id="XMLID_340_"/></svg>