<?xml version="1.0" ?><svg viewBox="0 0 64 64" xmlns="http://www.w3.org/2000/svg"><g data-name="Layer 17" id="Layer_17"><path d="M50.74,35.06a.5.5,0,0,0-.7,0l-2.69,2.69a.5.5,0,0,0,0,.71l4.13,4.14H44A10.92,10.92,0,0,1,33.06,31.69,15.74,15.74,0,0,0,17.34,16H4a.5.5,0,0,0-.5.5v3.8a.5.5,0,0,0,.5.5H17.34A10.93,10.93,0,0,1,28.25,31.69,15.73,15.73,0,0,0,44,47.4h7.51l-4.13,4.14a.5.5,0,0,0,0,.71L50,54.94a.48.48,0,0,0,.7,0l9.59-9.58a.53.53,0,0,0,.15-.36.47.47,0,0,0-.15-.35Zm-.35,18.82-2-2,4.64-4.64a.51.51,0,0,0-.36-.86H44A14.73,14.73,0,0,1,29.25,31.69,11.93,11.93,0,0,0,17.34,19.77H4.52V17H17.34A14.74,14.74,0,0,1,32.06,31.69,11.92,11.92,0,0,0,44,43.6h8.72a.5.5,0,0,0,.36-.85l-4.64-4.64,2-2L59.27,45Z"/><path d="M24.92,40.85a.49.49,0,0,0-.7-.07,10.81,10.81,0,0,1-6.88,2.45H4a.5.5,0,0,0-.5.5v3.8A.5.5,0,0,0,4,48H17.34a15.75,15.75,0,0,0,9.91-3.52.5.5,0,0,0,.07-.71ZM17.34,47H4.52v-2.8H17.34a11.77,11.77,0,0,0,7.12-2.37L26.23,44A14.78,14.78,0,0,1,17.34,47Z"/><path d="M36.38,23.77a.5.5,0,0,0,.7.08A10.85,10.85,0,0,1,44,21.4h7.51l-4.13,4.14a.5.5,0,0,0,0,.71L50,28.94a.48.48,0,0,0,.7,0l9.59-9.59a.47.47,0,0,0,.15-.35.53.53,0,0,0-.15-.36L50.74,9.06a.48.48,0,0,0-.7,0l-2.69,2.69a.5.5,0,0,0,0,.71l4.13,4.14H44a15.71,15.71,0,0,0-9.91,3.52.51.51,0,0,0-.08.71ZM44,17.6h8.72a.51.51,0,0,0,.36-.86L48.41,12.1l2-2L59.27,19l-8.88,8.88-2-2,4.64-4.64a.5.5,0,0,0-.36-.85H44a11.82,11.82,0,0,0-7.12,2.36l-1.77-2.17A14.74,14.74,0,0,1,44,17.6Z"/></g></svg>