<?xml version="1.0" ?><svg viewBox="0 0 64 64" xmlns="http://www.w3.org/2000/svg">
<g data-name="Layer 6" id="Layer_6">
<path d="M21.49,24.68a.5.5,0,0,0,.35-.14l2.7-2.7a.51.51,0,0,0,0-.7L19.89,16.5H32A15.51,15.51,0,0,1,47.5,32a.5.5,0,0,0,.5.5h3.81a.5.5,0,0,0,.5-.5A20.33,20.33,0,0,0,32,11.69H19.89L24.54,7a.52.52,0,0,0,.14-.36.5.5,0,0,0-.14-.35l-2.7-2.68a.48.48,0,0,0-.7,0L11,13.74a.51.51,0,0,0,0,.71l10.1,10.09A.5.5,0,0,0,21.49,24.68Z"/>
<path d="M53,49.55,42.86,39.46a.51.51,0,0,0-.7,0l-2.7,2.7a.51.51,0,0,0,0,.7l4.65,4.64H32A15.51,15.51,0,0,1,16.5,32a.5.5,0,0,0-.5-.5H12.19a.5.5,0,0,0-.5.5A20.33,20.33,0,0,0,32,52.31H44.11L39.46,57a.52.52,0,0,0-.14.36.5.5,0,0,0,.14.35l2.7,2.68a.49.49,0,0,0,.35.15.47.47,0,0,0,.35-.15L53,50.26A.51.51,0,0,0,53,49.55Z"/>
</g></svg>