<svg width="24" height="24" viewBox="0 0 24 24" xmlns="http://www.w3.org/2000/svg"><title>like-heart</title><path d="M12.872 18.334a24.074 24.074 0 0 0 2.97-2.206c2.654-2.323 4.2-4.828 4.157-7.38a3.849 3.849 0 0 0-1.095-2.638A3.65 3.65 0 0 0 16.28 5c-1.892.003-3.317 1.084-4.367 3.411a1 1 0 1 1-1.824-.822C11.441 4.592 13.534 3.005 16.275 3a5.65 5.65 0 0 1 4.058 1.71A5.848 5.848 0 0 1 22 8.715c.055 3.263-1.787 6.247-4.84 8.92a26.048 26.048 0 0 1-4.704 3.256 1 1 0 0 1-.91 0c-.083-.042-.228-.12-.427-.232a25.992 25.992 0 0 1-4.32-3.063c-3.028-2.663-4.851-5.635-4.797-8.88A5.848 5.848 0 0 1 3.667 4.71 5.65 5.65 0 0 1 7.725 3c.782.001 1.509.137 2.176.39a1 1 0 0 1-.708 1.87A4.137 4.137 0 0 0 7.72 5a3.65 3.65 0 0 0-2.625 1.11A3.849 3.849 0 0 0 4 8.748c-.043 2.538 1.487 5.031 4.118 7.346A24.019 24.019 0 0 0 12 18.859c.266-.152.559-.328.872-.525z" fill="#000" fill-rule="nonzero"/></svg>