<?xml version="1.0" ?><svg viewBox="0 0 32 32" xmlns="http://www.w3.org/2000/svg"><title/><g data-name="Layer 48" id="Layer_48"><path d="M28.09,8.43H23.67a1,1,0,0,0-1,1v9.33a4.86,4.86,0,0,0-2.9-1,4.9,4.9,0,1,0,4.9,4.9V10.43h3.42a1,1,0,1,0,0-2ZM19.77,25.6a2.9,2.9,0,1,1,2.9-2.9A2.9,2.9,0,0,1,19.77,25.6Z"/><path d="M3.91,10.43H17.26a1,1,0,0,0,0-2H3.91a1,1,0,0,0,0,2Z"/><path d="M3.91,17.07H17.26a1,1,0,1,0,0-2H3.91a1,1,0,0,0,0,2Z"/><path d="M12.55,21.7H4.1a1,1,0,1,0,0,2h8.45a1,1,0,0,0,0-2Z"/></g></svg>